<?xml version="1.0" encoding="UTF-8" standalone="no"?>
<!DOCTYPE svg PUBLIC "-//W3C//DTD SVG 1.1//EN"
 "http://www.w3.org/Graphics/SVG/1.1/DTD/svg11.dtd">
<!-- Generated by graphviz version 2.47.1 (20210417.1919)
 -->
<!-- Title: snakemake_dag Pages: 1 -->
<svg width="1513pt" height="697pt"
 viewBox="0.00 0.00 1512.50 697.00" xmlns="http://www.w3.org/2000/svg" xmlns:xlink="http://www.w3.org/1999/xlink">
<g id="graph0" class="graph" transform="scale(1 1) rotate(0) translate(4 693)">
<title>snakemake_dag</title>
<polygon fill="white" stroke="transparent" points="-4,4 -4,-693 1508.5,-693 1508.5,4 -4,4"/>
<!-- 0 -->
<g id="node1" class="node">
<title>0</title>
<path fill="none" stroke="#b6d856" stroke-width="2" d="M545,-36C545,-36 499,-36 499,-36 493,-36 487,-30 487,-24 487,-24 487,-12 487,-12 487,-6 493,0 499,0 499,0 545,0 545,0 551,0 557,-6 557,-12 557,-12 557,-24 557,-24 557,-30 551,-36 545,-36"/>
<text text-anchor="middle" x="522" y="-15.5" font-family="sans" font-size="10.00">generate_all</text>
</g>
<!-- 1 -->
<g id="node2" class="node">
<title>1</title>
<path fill="none" stroke="#5692d8" stroke-width="2" stroke-dasharray="5,2" d="M178.5,-108C178.5,-108 61.5,-108 61.5,-108 55.5,-108 49.5,-102 49.5,-96 49.5,-96 49.5,-84 49.5,-84 49.5,-78 55.5,-72 61.5,-72 61.5,-72 178.5,-72 178.5,-72 184.5,-72 190.5,-78 190.5,-84 190.5,-84 190.5,-96 190.5,-96 190.5,-102 184.5,-108 178.5,-108"/>
<text text-anchor="middle" x="120" y="-93" font-family="sans" font-size="10.00">generate_picture</text>
<text text-anchor="middle" x="120" y="-82" font-family="sans" font-size="10.00">picture: function_to_optimize</text>
</g>
<!-- 1&#45;&gt;0 -->
<g id="edge1" class="edge">
<title>1&#45;&gt;0</title>
<path fill="none" stroke="grey" stroke-width="2" d="M190.94,-76.65C273.38,-62.29 406.96,-39.03 476.56,-26.91"/>
<polygon fill="grey" stroke="grey" stroke-width="2" points="477.51,-30.3 486.76,-25.14 476.31,-23.4 477.51,-30.3"/>
</g>
<!-- 2 -->
<g id="node3" class="node">
<title>2</title>
<path fill="none" stroke="#d86e56" stroke-width="2" stroke-dasharray="5,2" d="M114,-470.5C114,-470.5 12,-470.5 12,-470.5 6,-470.5 0,-464.5 0,-458.5 0,-458.5 0,-446.5 0,-446.5 0,-440.5 6,-434.5 12,-434.5 12,-434.5 114,-434.5 114,-434.5 120,-434.5 126,-440.5 126,-446.5 126,-446.5 126,-458.5 126,-458.5 126,-464.5 120,-470.5 114,-470.5"/>
<text text-anchor="middle" x="63" y="-450" font-family="sans" font-size="10.00">plot_function_to_optimize</text>
</g>
<!-- 2&#45;&gt;1 -->
<g id="edge8" class="edge">
<title>2&#45;&gt;1</title>
<path fill="none" stroke="grey" stroke-width="2" d="M69.72,-434.46C79.63,-407.74 97,-354.16 97,-307 97,-307 97,-307 97,-233 97,-192.7 106.14,-146.78 112.9,-118.34"/>
<polygon fill="grey" stroke="grey" stroke-width="2" points="116.37,-118.89 115.35,-108.34 109.57,-117.22 116.37,-118.89"/>
</g>
<!-- 3 -->
<g id="node4" class="node">
<title>3</title>
<path fill="none" stroke="#d8cb56" stroke-width="2" stroke-dasharray="5,2" d="M793,-545C793,-545 757,-545 757,-545 751,-545 745,-539 745,-533 745,-533 745,-521 745,-521 745,-515 751,-509 757,-509 757,-509 793,-509 793,-509 799,-509 805,-515 805,-521 805,-521 805,-533 805,-533 805,-539 799,-545 793,-545"/>
<text text-anchor="middle" x="775" y="-524.5" font-family="sans" font-size="10.00">processed</text>
</g>
<!-- 3&#45;&gt;2 -->
<g id="edge9" class="edge">
<title>3&#45;&gt;2</title>
<path fill="none" stroke="grey" stroke-width="2" d="M744.76,-525.44C652.59,-523.33 367.26,-513.72 135,-473 134.23,-472.87 133.47,-472.73 132.69,-472.58"/>
<polygon fill="grey" stroke="grey" stroke-width="2" points="133.03,-469.08 122.53,-470.52 131.63,-475.94 133.03,-469.08"/>
</g>
<!-- 7 -->
<g id="node8" class="node">
<title>7</title>
<path fill="none" stroke="#d85656" stroke-width="2" stroke-dasharray="5,2" d="M196,-470.5C196,-470.5 156,-470.5 156,-470.5 150,-470.5 144,-464.5 144,-458.5 144,-458.5 144,-446.5 144,-446.5 144,-440.5 150,-434.5 156,-434.5 156,-434.5 196,-434.5 196,-434.5 202,-434.5 208,-440.5 208,-446.5 208,-446.5 208,-458.5 208,-458.5 208,-464.5 202,-470.5 196,-470.5"/>
<text text-anchor="middle" x="176" y="-450" font-family="sans" font-size="10.00">trade_hists</text>
</g>
<!-- 3&#45;&gt;7 -->
<g id="edge13" class="edge">
<title>3&#45;&gt;7</title>
<path fill="none" stroke="grey" stroke-width="2" d="M744.76,-524.52C646.5,-519.49 336.22,-501.9 218.11,-472.69"/>
<polygon fill="grey" stroke="grey" stroke-width="2" points="218.84,-469.26 208.28,-470.1 217.06,-476.03 218.84,-469.26"/>
</g>
<!-- 11 -->
<g id="node12" class="node">
<title>11</title>
<path fill="none" stroke="#56d8a9" stroke-width="2" stroke-dasharray="5,2" d="M300,-470.5C300,-470.5 238,-470.5 238,-470.5 232,-470.5 226,-464.5 226,-458.5 226,-458.5 226,-446.5 226,-446.5 226,-440.5 232,-434.5 238,-434.5 238,-434.5 300,-434.5 300,-434.5 306,-434.5 312,-440.5 312,-446.5 312,-446.5 312,-458.5 312,-458.5 312,-464.5 306,-470.5 300,-470.5"/>
<text text-anchor="middle" x="269" y="-455.5" font-family="sans" font-size="10.00">trade_data</text>
<text text-anchor="middle" x="269" y="-444.5" font-family="sans" font-size="10.00">ticker: BTC&#45;USD</text>
</g>
<!-- 3&#45;&gt;11 -->
<g id="edge18" class="edge">
<title>3&#45;&gt;11</title>
<path fill="none" stroke="grey" stroke-width="2" d="M744.81,-525C672.81,-522.08 485.46,-511.35 322.38,-473.03"/>
<polygon fill="grey" stroke="grey" stroke-width="2" points="322.7,-469.51 312.16,-470.58 321.08,-476.31 322.7,-469.51"/>
</g>
<!-- 16 -->
<g id="node17" class="node">
<title>16</title>
<path fill="none" stroke="#d8a456" stroke-width="2" stroke-dasharray="5,2" d="M404,-473C404,-473 342,-473 342,-473 336,-473 330,-467 330,-461 330,-461 330,-444 330,-444 330,-438 336,-432 342,-432 342,-432 404,-432 404,-432 410,-432 416,-438 416,-444 416,-444 416,-461 416,-461 416,-467 410,-473 404,-473"/>
<text text-anchor="middle" x="373" y="-461" font-family="sans" font-size="10.00">forecast_model</text>
<text text-anchor="middle" x="373" y="-450" font-family="sans" font-size="10.00">model: test</text>
<text text-anchor="middle" x="373" y="-439" font-family="sans" font-size="10.00">ticker: BTC&#45;USD</text>
</g>
<!-- 3&#45;&gt;16 -->
<g id="edge28" class="edge">
<title>3&#45;&gt;16</title>
<path fill="none" stroke="grey" stroke-width="2" d="M744.61,-523.55C684.96,-518.27 548.43,-503.96 426.1,-473.02"/>
<polygon fill="grey" stroke="grey" stroke-width="2" points="426.75,-469.57 416.19,-470.47 425.01,-476.35 426.75,-469.57"/>
</g>
<!-- 17 -->
<g id="node18" class="node">
<title>17</title>
<path fill="none" stroke="#d8a456" stroke-width="2" stroke-dasharray="5,2" d="M508,-473C508,-473 446,-473 446,-473 440,-473 434,-467 434,-461 434,-461 434,-444 434,-444 434,-438 440,-432 446,-432 446,-432 508,-432 508,-432 514,-432 520,-438 520,-444 520,-444 520,-461 520,-461 520,-467 514,-473 508,-473"/>
<text text-anchor="middle" x="477" y="-461" font-family="sans" font-size="10.00">forecast_model</text>
<text text-anchor="middle" x="477" y="-450" font-family="sans" font-size="10.00">model: wavelet</text>
<text text-anchor="middle" x="477" y="-439" font-family="sans" font-size="10.00">ticker: BTC&#45;USD</text>
</g>
<!-- 3&#45;&gt;17 -->
<g id="edge29" class="edge">
<title>3&#45;&gt;17</title>
<path fill="none" stroke="grey" stroke-width="2" d="M744.73,-520.95C699.73,-513.14 612.48,-496.76 530.02,-473.11"/>
<polygon fill="grey" stroke="grey" stroke-width="2" points="530.83,-469.7 520.25,-470.26 528.87,-476.42 530.83,-469.7"/>
</g>
<!-- 18 -->
<g id="node19" class="node">
<title>18</title>
<path fill="none" stroke="#d8a456" stroke-width="2" stroke-dasharray="5,2" d="M612,-473C612,-473 550,-473 550,-473 544,-473 538,-467 538,-461 538,-461 538,-444 538,-444 538,-438 544,-432 550,-432 550,-432 612,-432 612,-432 618,-432 624,-438 624,-444 624,-444 624,-461 624,-461 624,-467 618,-473 612,-473"/>
<text text-anchor="middle" x="581" y="-461" font-family="sans" font-size="10.00">forecast_model</text>
<text text-anchor="middle" x="581" y="-450" font-family="sans" font-size="10.00">model: baseline</text>
<text text-anchor="middle" x="581" y="-439" font-family="sans" font-size="10.00">ticker: BTC&#45;USD</text>
</g>
<!-- 3&#45;&gt;18 -->
<g id="edge30" class="edge">
<title>3&#45;&gt;18</title>
<path fill="none" stroke="grey" stroke-width="2" d="M744.69,-514.67C715.08,-503.61 669.39,-486.53 633.8,-473.23"/>
<polygon fill="grey" stroke="grey" stroke-width="2" points="634.65,-469.81 624.05,-469.59 632.2,-476.37 634.65,-469.81"/>
</g>
<!-- 19 -->
<g id="node20" class="node">
<title>19</title>
<path fill="none" stroke="#d8a456" stroke-width="2" stroke-dasharray="5,2" d="M754,-473C754,-473 692,-473 692,-473 686,-473 680,-467 680,-461 680,-461 680,-444 680,-444 680,-438 686,-432 692,-432 692,-432 754,-432 754,-432 760,-432 766,-438 766,-444 766,-444 766,-461 766,-461 766,-467 760,-473 754,-473"/>
<text text-anchor="middle" x="723" y="-461" font-family="sans" font-size="10.00">forecast_model</text>
<text text-anchor="middle" x="723" y="-450" font-family="sans" font-size="10.00">model: arima</text>
<text text-anchor="middle" x="723" y="-439" font-family="sans" font-size="10.00">ticker: BTC&#45;USD</text>
</g>
<!-- 3&#45;&gt;19 -->
<g id="edge31" class="edge">
<title>3&#45;&gt;19</title>
<path fill="none" stroke="grey" stroke-width="2" d="M762.68,-508.82C756.79,-500.61 749.6,-490.58 742.96,-481.33"/>
<polygon fill="grey" stroke="grey" stroke-width="2" points="745.74,-479.21 737.07,-473.12 740.06,-483.29 745.74,-479.21"/>
</g>
<!-- 20 -->
<g id="node21" class="node">
<title>20</title>
<path fill="none" stroke="#d8a456" stroke-width="2" stroke-dasharray="5,2" d="M858,-473C858,-473 796,-473 796,-473 790,-473 784,-467 784,-461 784,-461 784,-444 784,-444 784,-438 790,-432 796,-432 796,-432 858,-432 858,-432 864,-432 870,-438 870,-444 870,-444 870,-461 870,-461 870,-467 864,-473 858,-473"/>
<text text-anchor="middle" x="827" y="-461" font-family="sans" font-size="10.00">forecast_model</text>
<text text-anchor="middle" x="827" y="-450" font-family="sans" font-size="10.00">model: var</text>
<text text-anchor="middle" x="827" y="-439" font-family="sans" font-size="10.00">ticker: BTC&#45;USD</text>
</g>
<!-- 3&#45;&gt;20 -->
<g id="edge32" class="edge">
<title>3&#45;&gt;20</title>
<path fill="none" stroke="grey" stroke-width="2" d="M787.32,-508.82C793.21,-500.61 800.4,-490.58 807.04,-481.33"/>
<polygon fill="grey" stroke="grey" stroke-width="2" points="809.94,-483.29 812.93,-473.12 804.26,-479.21 809.94,-483.29"/>
</g>
<!-- 21 -->
<g id="node22" class="node">
<title>21</title>
<path fill="none" stroke="#56d892" stroke-width="2" stroke-dasharray="5,2" d="M643.5,-396C643.5,-396 576.5,-396 576.5,-396 570.5,-396 564.5,-390 564.5,-384 564.5,-384 564.5,-372 564.5,-372 564.5,-366 570.5,-360 576.5,-360 576.5,-360 643.5,-360 643.5,-360 649.5,-360 655.5,-366 655.5,-372 655.5,-372 655.5,-384 655.5,-384 655.5,-390 649.5,-396 643.5,-396"/>
<text text-anchor="middle" x="610" y="-375.5" font-family="sans" font-size="10.00">forecast_stacking</text>
</g>
<!-- 3&#45;&gt;21 -->
<g id="edge33" class="edge">
<title>3&#45;&gt;21</title>
<path fill="none" stroke="grey" stroke-width="2" d="M744.68,-515.47C722.46,-506.66 692.53,-492.4 671,-473 649.79,-453.89 632.85,-425.8 622.25,-405.3"/>
<polygon fill="grey" stroke="grey" stroke-width="2" points="625.31,-403.58 617.71,-396.2 619.05,-406.71 625.31,-403.58"/>
</g>
<!-- 26 -->
<g id="node27" class="node">
<title>26</title>
<path fill="none" stroke="#56d8a9" stroke-width="2" stroke-dasharray="5,2" d="M946,-470.5C946,-470.5 900,-470.5 900,-470.5 894,-470.5 888,-464.5 888,-458.5 888,-458.5 888,-446.5 888,-446.5 888,-440.5 894,-434.5 900,-434.5 900,-434.5 946,-434.5 946,-434.5 952,-434.5 958,-440.5 958,-446.5 958,-446.5 958,-458.5 958,-458.5 958,-464.5 952,-470.5 946,-470.5"/>
<text text-anchor="middle" x="923" y="-455.5" font-family="sans" font-size="10.00">trade_data</text>
<text text-anchor="middle" x="923" y="-444.5" font-family="sans" font-size="10.00">ticker: ticker</text>
</g>
<!-- 3&#45;&gt;26 -->
<g id="edge46" class="edge">
<title>3&#45;&gt;26</title>
<path fill="none" stroke="grey" stroke-width="2" d="M805.31,-511.15C826.51,-500.77 855.17,-486.73 878.9,-475.1"/>
<polygon fill="grey" stroke="grey" stroke-width="2" points="880.62,-478.16 888.06,-470.62 877.54,-471.87 880.62,-478.16"/>
</g>
<!-- 34 -->
<g id="node35" class="node">
<title>34</title>
<path fill="none" stroke="#d8a456" stroke-width="2" stroke-dasharray="5,2" d="M1047.5,-473C1047.5,-473 988.5,-473 988.5,-473 982.5,-473 976.5,-467 976.5,-461 976.5,-461 976.5,-444 976.5,-444 976.5,-438 982.5,-432 988.5,-432 988.5,-432 1047.5,-432 1047.5,-432 1053.5,-432 1059.5,-438 1059.5,-444 1059.5,-444 1059.5,-461 1059.5,-461 1059.5,-467 1053.5,-473 1047.5,-473"/>
<text text-anchor="middle" x="1018" y="-461" font-family="sans" font-size="10.00">forecast_model</text>
<text text-anchor="middle" x="1018" y="-450" font-family="sans" font-size="10.00">model: test</text>
<text text-anchor="middle" x="1018" y="-439" font-family="sans" font-size="10.00">ticker: ticker</text>
</g>
<!-- 3&#45;&gt;34 -->
<g id="edge59" class="edge">
<title>3&#45;&gt;34</title>
<path fill="none" stroke="grey" stroke-width="2" d="M805.2,-518.62C841.39,-509.57 903.99,-493.25 966.71,-472.95"/>
<polygon fill="grey" stroke="grey" stroke-width="2" points="967.95,-476.23 976.37,-469.79 965.78,-469.57 967.95,-476.23"/>
</g>
<!-- 35 -->
<g id="node36" class="node">
<title>35</title>
<path fill="none" stroke="#d8a456" stroke-width="2" stroke-dasharray="5,2" d="M1148.5,-473C1148.5,-473 1089.5,-473 1089.5,-473 1083.5,-473 1077.5,-467 1077.5,-461 1077.5,-461 1077.5,-444 1077.5,-444 1077.5,-438 1083.5,-432 1089.5,-432 1089.5,-432 1148.5,-432 1148.5,-432 1154.5,-432 1160.5,-438 1160.5,-444 1160.5,-444 1160.5,-461 1160.5,-461 1160.5,-467 1154.5,-473 1148.5,-473"/>
<text text-anchor="middle" x="1119" y="-461" font-family="sans" font-size="10.00">forecast_model</text>
<text text-anchor="middle" x="1119" y="-450" font-family="sans" font-size="10.00">model: wavelet</text>
<text text-anchor="middle" x="1119" y="-439" font-family="sans" font-size="10.00">ticker: ticker</text>
</g>
<!-- 3&#45;&gt;35 -->
<g id="edge60" class="edge">
<title>3&#45;&gt;35</title>
<path fill="none" stroke="grey" stroke-width="2" d="M805.06,-522.53C857.08,-516.12 967.25,-500.7 1067.77,-473.1"/>
<polygon fill="grey" stroke="grey" stroke-width="2" points="1068.77,-476.46 1077.46,-470.39 1066.89,-469.71 1068.77,-476.46"/>
</g>
<!-- 36 -->
<g id="node37" class="node">
<title>36</title>
<path fill="none" stroke="#d8a456" stroke-width="2" stroke-dasharray="5,2" d="M1251.5,-473C1251.5,-473 1190.5,-473 1190.5,-473 1184.5,-473 1178.5,-467 1178.5,-461 1178.5,-461 1178.5,-444 1178.5,-444 1178.5,-438 1184.5,-432 1190.5,-432 1190.5,-432 1251.5,-432 1251.5,-432 1257.5,-432 1263.5,-438 1263.5,-444 1263.5,-444 1263.5,-461 1263.5,-461 1263.5,-467 1257.5,-473 1251.5,-473"/>
<text text-anchor="middle" x="1221" y="-461" font-family="sans" font-size="10.00">forecast_model</text>
<text text-anchor="middle" x="1221" y="-450" font-family="sans" font-size="10.00">model: baseline</text>
<text text-anchor="middle" x="1221" y="-439" font-family="sans" font-size="10.00">ticker: ticker</text>
</g>
<!-- 3&#45;&gt;36 -->
<g id="edge61" class="edge">
<title>3&#45;&gt;36</title>
<path fill="none" stroke="grey" stroke-width="2" d="M805.18,-524.34C870.33,-520.25 1028.9,-507.58 1168.37,-473.14"/>
<polygon fill="grey" stroke="grey" stroke-width="2" points="1169.54,-476.45 1178.38,-470.62 1167.83,-469.66 1169.54,-476.45"/>
</g>
<!-- 37 -->
<g id="node38" class="node">
<title>37</title>
<path fill="none" stroke="#d8a456" stroke-width="2" stroke-dasharray="5,2" d="M1391.5,-473C1391.5,-473 1332.5,-473 1332.5,-473 1326.5,-473 1320.5,-467 1320.5,-461 1320.5,-461 1320.5,-444 1320.5,-444 1320.5,-438 1326.5,-432 1332.5,-432 1332.5,-432 1391.5,-432 1391.5,-432 1397.5,-432 1403.5,-438 1403.5,-444 1403.5,-444 1403.5,-461 1403.5,-461 1403.5,-467 1397.5,-473 1391.5,-473"/>
<text text-anchor="middle" x="1362" y="-461" font-family="sans" font-size="10.00">forecast_model</text>
<text text-anchor="middle" x="1362" y="-450" font-family="sans" font-size="10.00">model: arima</text>
<text text-anchor="middle" x="1362" y="-439" font-family="sans" font-size="10.00">ticker: ticker</text>
</g>
<!-- 3&#45;&gt;37 -->
<g id="edge62" class="edge">
<title>3&#45;&gt;37</title>
<path fill="none" stroke="grey" stroke-width="2" d="M805.04,-525.47C886.57,-523.5 1118.51,-514.39 1306,-473 1307.48,-472.67 1308.97,-472.32 1310.47,-471.95"/>
<polygon fill="grey" stroke="grey" stroke-width="2" points="1311.72,-475.23 1320.42,-469.18 1309.85,-468.49 1311.72,-475.23"/>
</g>
<!-- 38 -->
<g id="node39" class="node">
<title>38</title>
<path fill="none" stroke="#d8a456" stroke-width="2" stroke-dasharray="5,2" d="M1492.5,-473C1492.5,-473 1433.5,-473 1433.5,-473 1427.5,-473 1421.5,-467 1421.5,-461 1421.5,-461 1421.5,-444 1421.5,-444 1421.5,-438 1427.5,-432 1433.5,-432 1433.5,-432 1492.5,-432 1492.5,-432 1498.5,-432 1504.5,-438 1504.5,-444 1504.5,-444 1504.5,-461 1504.5,-461 1504.5,-467 1498.5,-473 1492.5,-473"/>
<text text-anchor="middle" x="1463" y="-461" font-family="sans" font-size="10.00">forecast_model</text>
<text text-anchor="middle" x="1463" y="-450" font-family="sans" font-size="10.00">model: var</text>
<text text-anchor="middle" x="1463" y="-439" font-family="sans" font-size="10.00">ticker: ticker</text>
</g>
<!-- 3&#45;&gt;38 -->
<g id="edge63" class="edge">
<title>3&#45;&gt;38</title>
<path fill="none" stroke="grey" stroke-width="2" d="M805.04,-526.55C895.97,-527.59 1175.91,-526.09 1411.5,-473.02"/>
<polygon fill="grey" stroke="grey" stroke-width="2" points="1412.3,-476.43 1421.27,-470.79 1410.74,-469.61 1412.3,-476.43"/>
</g>
<!-- 39 -->
<g id="node40" class="node">
<title>39</title>
<path fill="none" stroke="#56d892" stroke-width="2" stroke-dasharray="5,2" d="M1299.5,-396C1299.5,-396 1232.5,-396 1232.5,-396 1226.5,-396 1220.5,-390 1220.5,-384 1220.5,-384 1220.5,-372 1220.5,-372 1220.5,-366 1226.5,-360 1232.5,-360 1232.5,-360 1299.5,-360 1299.5,-360 1305.5,-360 1311.5,-366 1311.5,-372 1311.5,-372 1311.5,-384 1311.5,-384 1311.5,-390 1305.5,-396 1299.5,-396"/>
<text text-anchor="middle" x="1266" y="-375.5" font-family="sans" font-size="10.00">forecast_stacking</text>
</g>
<!-- 3&#45;&gt;39 -->
<g id="edge64" class="edge">
<title>3&#45;&gt;39</title>
<path fill="none" stroke="grey" stroke-width="2" d="M805.02,-525.09C907.89,-521.67 1241.57,-507.95 1273,-473 1289.08,-455.12 1284.39,-426.79 1277.48,-405.9"/>
<polygon fill="grey" stroke="grey" stroke-width="2" points="1280.7,-404.52 1273.99,-396.33 1274.13,-406.92 1280.7,-404.52"/>
</g>
<!-- 4 -->
<g id="node5" class="node">
<title>4</title>
<path fill="none" stroke="#567bd8" stroke-width="2" stroke-dasharray="5,2" d="M790,-617C790,-617 760,-617 760,-617 754,-617 748,-611 748,-605 748,-605 748,-593 748,-593 748,-587 754,-581 760,-581 760,-581 790,-581 790,-581 796,-581 802,-587 802,-593 802,-593 802,-605 802,-605 802,-611 796,-617 790,-617"/>
<text text-anchor="middle" x="775" y="-596.5" font-family="sans" font-size="10.00">interim</text>
</g>
<!-- 4&#45;&gt;3 -->
<g id="edge10" class="edge">
<title>4&#45;&gt;3</title>
<path fill="none" stroke="grey" stroke-width="2" d="M775,-580.7C775,-572.98 775,-563.71 775,-555.11"/>
<polygon fill="grey" stroke="grey" stroke-width="2" points="778.5,-555.1 775,-545.1 771.5,-555.1 778.5,-555.1"/>
</g>
<!-- 5 -->
<g id="node6" class="node">
<title>5</title>
<path fill="none" stroke="#56d8b9" stroke-width="2" stroke-dasharray="5,2" d="M807.5,-689C807.5,-689 742.5,-689 742.5,-689 736.5,-689 730.5,-683 730.5,-677 730.5,-677 730.5,-665 730.5,-665 730.5,-659 736.5,-653 742.5,-653 742.5,-653 807.5,-653 807.5,-653 813.5,-653 819.5,-659 819.5,-665 819.5,-665 819.5,-677 819.5,-677 819.5,-683 813.5,-689 807.5,-689"/>
<text text-anchor="middle" x="775" y="-674" font-family="sans" font-size="10.00">download_yahoo</text>
<text text-anchor="middle" x="775" y="-663" font-family="sans" font-size="10.00">ticker: ticker</text>
</g>
<!-- 5&#45;&gt;4 -->
<g id="edge11" class="edge">
<title>5&#45;&gt;4</title>
<path fill="none" stroke="grey" stroke-width="2" d="M775,-652.7C775,-644.98 775,-635.71 775,-627.11"/>
<polygon fill="grey" stroke="grey" stroke-width="2" points="778.5,-627.1 775,-617.1 771.5,-627.1 778.5,-627.1"/>
</g>
<!-- 6 -->
<g id="node7" class="node">
<title>6</title>
<path fill="none" stroke="#5692d8" stroke-width="2" stroke-dasharray="5,2" d="M265,-324C265,-324 183,-324 183,-324 177,-324 171,-318 171,-312 171,-312 171,-300 171,-300 171,-294 177,-288 183,-288 183,-288 265,-288 265,-288 271,-288 277,-294 277,-300 277,-300 277,-312 277,-312 277,-318 271,-324 265,-324"/>
<text text-anchor="middle" x="224" y="-309" font-family="sans" font-size="10.00">generate_picture</text>
<text text-anchor="middle" x="224" y="-298" font-family="sans" font-size="10.00">picture: balance_hist</text>
</g>
<!-- 6&#45;&gt;0 -->
<g id="edge2" class="edge">
<title>6&#45;&gt;0</title>
<path fill="none" stroke="grey" stroke-width="2" d="M227.75,-287.71C238.03,-244.55 270.73,-131.32 342,-72 380.27,-40.15 437,-27.44 476.51,-22.37"/>
<polygon fill="grey" stroke="grey" stroke-width="2" points="477.14,-25.82 486.67,-21.18 476.33,-18.86 477.14,-25.82"/>
</g>
<!-- 7&#45;&gt;6 -->
<g id="edge12" class="edge">
<title>7&#45;&gt;6</title>
<path fill="none" stroke="grey" stroke-width="2" d="M181.69,-434.36C189.96,-409.48 205.35,-363.14 215.11,-333.75"/>
<polygon fill="grey" stroke="grey" stroke-width="2" points="218.48,-334.71 218.31,-324.12 211.84,-332.51 218.48,-334.71"/>
</g>
<!-- 8 -->
<g id="node9" class="node">
<title>8</title>
<path fill="none" stroke="#5692d8" stroke-width="2" stroke-dasharray="5,2" d="M464.5,-108C464.5,-108 363.5,-108 363.5,-108 357.5,-108 351.5,-102 351.5,-96 351.5,-96 351.5,-84 351.5,-84 351.5,-78 357.5,-72 363.5,-72 363.5,-72 464.5,-72 464.5,-72 470.5,-72 476.5,-78 476.5,-84 476.5,-84 476.5,-96 476.5,-96 476.5,-102 470.5,-108 464.5,-108"/>
<text text-anchor="middle" x="414" y="-93" font-family="sans" font-size="10.00">generate_picture</text>
<text text-anchor="middle" x="414" y="-82" font-family="sans" font-size="10.00">picture: figures_accuracy</text>
</g>
<!-- 8&#45;&gt;0 -->
<g id="edge3" class="edge">
<title>8&#45;&gt;0</title>
<path fill="none" stroke="grey" stroke-width="2" d="M440.42,-71.88C454.41,-62.81 471.78,-51.55 486.89,-41.76"/>
<polygon fill="grey" stroke="grey" stroke-width="2" points="488.99,-44.57 495.48,-36.19 485.18,-38.69 488.99,-44.57"/>
</g>
<!-- 9 -->
<g id="node10" class="node">
<title>9</title>
<path fill="none" stroke="#8fd856" stroke-width="2" stroke-dasharray="5,2" d="M419.5,-252C419.5,-252 340.5,-252 340.5,-252 334.5,-252 328.5,-246 328.5,-240 328.5,-240 328.5,-228 328.5,-228 328.5,-222 334.5,-216 340.5,-216 340.5,-216 419.5,-216 419.5,-216 425.5,-216 431.5,-222 431.5,-228 431.5,-228 431.5,-240 431.5,-240 431.5,-246 425.5,-252 419.5,-252"/>
<text text-anchor="middle" x="380" y="-231.5" font-family="sans" font-size="10.00">plot_trade_accuracy</text>
</g>
<!-- 9&#45;&gt;8 -->
<g id="edge14" class="edge">
<title>9&#45;&gt;8</title>
<path fill="none" stroke="grey" stroke-width="2" d="M384.1,-215.87C389.92,-191.56 400.63,-146.82 407.53,-118.01"/>
<polygon fill="grey" stroke="grey" stroke-width="2" points="410.96,-118.73 409.88,-108.19 404.15,-117.1 410.96,-118.73"/>
</g>
<!-- 10 -->
<g id="node11" class="node">
<title>10</title>
<path fill="none" stroke="#56d0d8" stroke-width="2" stroke-dasharray="5,2" d="M374.5,-324C374.5,-324 319.5,-324 319.5,-324 313.5,-324 307.5,-318 307.5,-312 307.5,-312 307.5,-300 307.5,-300 307.5,-294 313.5,-288 319.5,-288 319.5,-288 374.5,-288 374.5,-288 380.5,-288 386.5,-294 386.5,-300 386.5,-300 386.5,-312 386.5,-312 386.5,-318 380.5,-324 374.5,-324"/>
<text text-anchor="middle" x="347" y="-303.5" font-family="sans" font-size="10.00">forecast_trade</text>
</g>
<!-- 10&#45;&gt;9 -->
<g id="edge15" class="edge">
<title>10&#45;&gt;9</title>
<path fill="none" stroke="grey" stroke-width="2" d="M355.16,-287.7C358.91,-279.73 363.45,-270.1 367.62,-261.26"/>
<polygon fill="grey" stroke="grey" stroke-width="2" points="370.84,-262.64 371.94,-252.1 364.51,-259.66 370.84,-262.64"/>
</g>
<!-- 11&#45;&gt;10 -->
<g id="edge16" class="edge">
<title>11&#45;&gt;10</title>
<path fill="none" stroke="grey" stroke-width="2" d="M269.42,-434.18C270.57,-414.89 274.58,-383.35 288,-360 294.38,-348.9 303.91,-338.88 313.46,-330.61"/>
<polygon fill="grey" stroke="grey" stroke-width="2" points="315.89,-333.13 321.41,-324.09 311.46,-327.72 315.89,-333.13"/>
</g>
<!-- 12 -->
<g id="node13" class="node">
<title>12</title>
<path fill="none" stroke="#566bd8" stroke-width="2" stroke-dasharray="5,2" d="M384.5,-396C384.5,-396 309.5,-396 309.5,-396 303.5,-396 297.5,-390 297.5,-384 297.5,-384 297.5,-372 297.5,-372 297.5,-366 303.5,-360 309.5,-360 309.5,-360 384.5,-360 384.5,-360 390.5,-360 396.5,-366 396.5,-372 396.5,-372 396.5,-384 396.5,-384 396.5,-390 390.5,-396 384.5,-396"/>
<text text-anchor="middle" x="347" y="-375.5" font-family="sans" font-size="10.00">best_window_sizes</text>
</g>
<!-- 11&#45;&gt;12 -->
<g id="edge19" class="edge">
<title>11&#45;&gt;12</title>
<path fill="none" stroke="grey" stroke-width="2" d="M287.48,-434.32C297.59,-424.93 310.26,-413.15 321.31,-402.88"/>
<polygon fill="grey" stroke="grey" stroke-width="2" points="323.71,-405.43 328.65,-396.06 318.94,-400.3 323.71,-405.43"/>
</g>
<!-- 12&#45;&gt;10 -->
<g id="edge17" class="edge">
<title>12&#45;&gt;10</title>
<path fill="none" stroke="grey" stroke-width="2" d="M347,-359.7C347,-351.98 347,-342.71 347,-334.11"/>
<polygon fill="grey" stroke="grey" stroke-width="2" points="350.5,-334.1 347,-324.1 343.5,-334.1 350.5,-334.1"/>
</g>
<!-- 13 -->
<g id="node14" class="node">
<title>13</title>
<path fill="none" stroke="#5692d8" stroke-width="2" stroke-dasharray="5,2" d="M556,-180C556,-180 488,-180 488,-180 482,-180 476,-174 476,-168 476,-168 476,-156 476,-156 476,-150 482,-144 488,-144 488,-144 556,-144 556,-144 562,-144 568,-150 568,-156 568,-156 568,-168 568,-168 568,-174 562,-180 556,-180"/>
<text text-anchor="middle" x="522" y="-165" font-family="sans" font-size="10.00">generate_picture</text>
<text text-anchor="middle" x="522" y="-154" font-family="sans" font-size="10.00">picture: BTC&#45;USD</text>
</g>
<!-- 13&#45;&gt;0 -->
<g id="edge4" class="edge">
<title>13&#45;&gt;0</title>
<path fill="none" stroke="grey" stroke-width="2" d="M522,-143.87C522,-119.67 522,-75.21 522,-46.39"/>
<polygon fill="grey" stroke="grey" stroke-width="2" points="525.5,-46.19 522,-36.19 518.5,-46.19 525.5,-46.19"/>
</g>
<!-- 14 -->
<g id="node15" class="node">
<title>14</title>
<path fill="none" stroke="#80d856" stroke-width="2" stroke-dasharray="5,2" d="M543.5,-252C543.5,-252 510.5,-252 510.5,-252 504.5,-252 498.5,-246 498.5,-240 498.5,-240 498.5,-228 498.5,-228 498.5,-222 504.5,-216 510.5,-216 510.5,-216 543.5,-216 543.5,-216 549.5,-216 555.5,-222 555.5,-228 555.5,-228 555.5,-240 555.5,-240 555.5,-246 549.5,-252 543.5,-252"/>
<text text-anchor="middle" x="527" y="-231.5" font-family="sans" font-size="10.00">plot_pred</text>
</g>
<!-- 14&#45;&gt;13 -->
<g id="edge20" class="edge">
<title>14&#45;&gt;13</title>
<path fill="none" stroke="grey" stroke-width="2" d="M525.76,-215.7C525.21,-207.98 524.55,-198.71 523.94,-190.11"/>
<polygon fill="grey" stroke="grey" stroke-width="2" points="527.43,-189.83 523.22,-180.1 520.44,-190.33 527.43,-189.83"/>
</g>
<!-- 15 -->
<g id="node16" class="node">
<title>15</title>
<path fill="none" stroke="#d8bc56" stroke-width="2" stroke-dasharray="5,2" d="M574,-324C574,-324 498,-324 498,-324 492,-324 486,-318 486,-312 486,-312 486,-300 486,-300 486,-294 492,-288 498,-288 498,-288 574,-288 574,-288 580,-288 586,-294 586,-300 586,-300 586,-312 586,-312 586,-318 580,-324 574,-324"/>
<text text-anchor="middle" x="536" y="-303.5" font-family="sans" font-size="10.00">aggregate_forecast</text>
</g>
<!-- 15&#45;&gt;14 -->
<g id="edge21" class="edge">
<title>15&#45;&gt;14</title>
<path fill="none" stroke="grey" stroke-width="2" d="M533.78,-287.7C532.78,-279.98 531.59,-270.71 530.49,-262.11"/>
<polygon fill="grey" stroke="grey" stroke-width="2" points="533.95,-261.58 529.2,-252.1 527,-262.47 533.95,-261.58"/>
</g>
<!-- 16&#45;&gt;15 -->
<g id="edge22" class="edge">
<title>16&#45;&gt;15</title>
<path fill="none" stroke="grey" stroke-width="2" d="M395.32,-431.71C424.9,-405.49 477.05,-359.26 508.86,-331.06"/>
<polygon fill="grey" stroke="grey" stroke-width="2" points="511.33,-333.55 516.49,-324.3 506.69,-328.31 511.33,-333.55"/>
</g>
<!-- 16&#45;&gt;21 -->
<g id="edge34" class="edge">
<title>16&#45;&gt;21</title>
<path fill="none" stroke="grey" stroke-width="2" d="M416.04,-435.06C419.06,-434 422.07,-432.97 425,-432 468.06,-417.78 517.47,-403.74 554.39,-393.69"/>
<polygon fill="grey" stroke="grey" stroke-width="2" points="555.72,-396.95 564.45,-390.96 553.89,-390.2 555.72,-396.95"/>
</g>
<!-- 17&#45;&gt;15 -->
<g id="edge23" class="edge">
<title>17&#45;&gt;15</title>
<path fill="none" stroke="grey" stroke-width="2" d="M485.08,-431.71C495.47,-406.27 513.55,-361.99 525.13,-333.61"/>
<polygon fill="grey" stroke="grey" stroke-width="2" points="528.4,-334.88 528.94,-324.3 521.92,-332.23 528.4,-334.88"/>
</g>
<!-- 17&#45;&gt;21 -->
<g id="edge35" class="edge">
<title>17&#45;&gt;21</title>
<path fill="none" stroke="grey" stroke-width="2" d="M512.99,-431.88C530.42,-422.38 551.41,-410.94 569.41,-401.13"/>
<polygon fill="grey" stroke="grey" stroke-width="2" points="571.4,-404.03 578.51,-396.17 568.05,-397.88 571.4,-404.03"/>
</g>
<!-- 18&#45;&gt;15 -->
<g id="edge24" class="edge">
<title>18&#45;&gt;15</title>
<path fill="none" stroke="grey" stroke-width="2" d="M570.98,-431.85C565.95,-421.41 560.08,-408.23 556,-396 549.2,-375.63 543.99,-351.86 540.6,-334.02"/>
<polygon fill="grey" stroke="grey" stroke-width="2" points="544.01,-333.21 538.76,-324.01 537.12,-334.48 544.01,-333.21"/>
</g>
<!-- 18&#45;&gt;21 -->
<g id="edge36" class="edge">
<title>18&#45;&gt;21</title>
<path fill="none" stroke="grey" stroke-width="2" d="M588.92,-431.69C592.14,-423.65 595.91,-414.24 599.36,-405.61"/>
<polygon fill="grey" stroke="grey" stroke-width="2" points="602.61,-406.9 603.07,-396.32 596.11,-404.3 602.61,-406.9"/>
</g>
<!-- 19&#45;&gt;15 -->
<g id="edge25" class="edge">
<title>19&#45;&gt;15</title>
<path fill="none" stroke="grey" stroke-width="2" d="M714.9,-431.85C705.58,-411.41 688.49,-379.7 665,-360 645.03,-343.25 619.03,-331.21 595.62,-322.89"/>
<polygon fill="grey" stroke="grey" stroke-width="2" points="596.71,-319.56 586.11,-319.66 594.46,-326.19 596.71,-319.56"/>
</g>
<!-- 19&#45;&gt;21 -->
<g id="edge37" class="edge">
<title>19&#45;&gt;21</title>
<path fill="none" stroke="grey" stroke-width="2" d="M692.42,-431.88C677.89,-422.56 660.43,-411.36 645.33,-401.67"/>
<polygon fill="grey" stroke="grey" stroke-width="2" points="647.06,-398.62 636.76,-396.17 643.28,-404.51 647.06,-398.62"/>
</g>
<!-- 20&#45;&gt;15 -->
<g id="edge26" class="edge">
<title>20&#45;&gt;15</title>
<path fill="none" stroke="grey" stroke-width="2" d="M802.8,-431.75C777.09,-411.54 734.62,-380.28 694,-360 662.95,-344.5 626.32,-331.89 596.14,-322.86"/>
<polygon fill="grey" stroke="grey" stroke-width="2" points="596.75,-319.39 586.17,-319.94 594.78,-326.11 596.75,-319.39"/>
</g>
<!-- 20&#45;&gt;21 -->
<g id="edge38" class="edge">
<title>20&#45;&gt;21</title>
<path fill="none" stroke="grey" stroke-width="2" d="M783.93,-435.17C780.91,-434.08 777.91,-433.01 775,-432 738.69,-419.37 697.52,-406.14 665.38,-396.06"/>
<polygon fill="grey" stroke="grey" stroke-width="2" points="666.31,-392.68 655.72,-393.04 664.22,-399.36 666.31,-392.68"/>
</g>
<!-- 21&#45;&gt;15 -->
<g id="edge27" class="edge">
<title>21&#45;&gt;15</title>
<path fill="none" stroke="grey" stroke-width="2" d="M591.71,-359.7C582.57,-351.05 571.36,-340.45 561.4,-331.03"/>
<polygon fill="grey" stroke="grey" stroke-width="2" points="563.75,-328.43 554.08,-324.1 558.94,-333.52 563.75,-328.43"/>
</g>
<!-- 22 -->
<g id="node23" class="node">
<title>22</title>
<path fill="none" stroke="#56b9d8" stroke-width="2" stroke-dasharray="5,2" d="M663,-108C663,-108 565,-108 565,-108 559,-108 553,-102 553,-96 553,-96 553,-84 553,-84 553,-78 559,-72 565,-72 565,-72 663,-72 663,-72 669,-72 675,-78 675,-84 675,-84 675,-96 675,-96 675,-102 669,-108 663,-108"/>
<text text-anchor="middle" x="614" y="-93" font-family="sans" font-size="10.00">generate_table</text>
<text text-anchor="middle" x="614" y="-82" font-family="sans" font-size="10.00">table: simulation_results</text>
</g>
<!-- 22&#45;&gt;0 -->
<g id="edge5" class="edge">
<title>22&#45;&gt;0</title>
<path fill="none" stroke="grey" stroke-width="2" d="M591.26,-71.7C579.56,-62.8 565.14,-51.82 552.49,-42.2"/>
<polygon fill="grey" stroke="grey" stroke-width="2" points="554.56,-39.37 544.48,-36.1 550.32,-44.94 554.56,-39.37"/>
</g>
<!-- 23 -->
<g id="node24" class="node">
<title>23</title>
<path fill="none" stroke="#56d87b" stroke-width="2" stroke-dasharray="5,2" d="M668,-180C668,-180 598,-180 598,-180 592,-180 586,-174 586,-168 586,-168 586,-156 586,-156 586,-150 592,-144 598,-144 598,-144 668,-144 668,-144 674,-144 680,-150 680,-156 680,-156 680,-168 680,-168 680,-174 674,-180 668,-180"/>
<text text-anchor="middle" x="633" y="-159.5" font-family="sans" font-size="10.00">simulation_results</text>
</g>
<!-- 23&#45;&gt;22 -->
<g id="edge39" class="edge">
<title>23&#45;&gt;22</title>
<path fill="none" stroke="grey" stroke-width="2" d="M628.3,-143.7C626.19,-135.9 623.64,-126.51 621.28,-117.83"/>
<polygon fill="grey" stroke="grey" stroke-width="2" points="624.64,-116.84 618.64,-108.1 617.88,-118.67 624.64,-116.84"/>
</g>
<!-- 24 -->
<g id="node25" class="node">
<title>24</title>
<path fill="none" stroke="#56a9d8" stroke-width="2" stroke-dasharray="5,2" d="M667,-252C667,-252 589,-252 589,-252 583,-252 577,-246 577,-240 577,-240 577,-228 577,-228 577,-222 583,-216 589,-216 589,-216 667,-216 667,-216 673,-216 679,-222 679,-228 679,-228 679,-240 679,-240 679,-246 673,-252 667,-252"/>
<text text-anchor="middle" x="628" y="-237" font-family="sans" font-size="10.00">play_simulation</text>
<text text-anchor="middle" x="628" y="-226" font-family="sans" font-size="10.00">model_type: logistic</text>
</g>
<!-- 24&#45;&gt;23 -->
<g id="edge40" class="edge">
<title>24&#45;&gt;23</title>
<path fill="none" stroke="grey" stroke-width="2" d="M629.24,-215.7C629.79,-207.98 630.45,-198.71 631.06,-190.11"/>
<polygon fill="grey" stroke="grey" stroke-width="2" points="634.56,-190.33 631.78,-180.1 627.57,-189.83 634.56,-190.33"/>
</g>
<!-- 25 -->
<g id="node26" class="node">
<title>25</title>
<path fill="none" stroke="#56d0d8" stroke-width="2" stroke-dasharray="5,2" d="M872.5,-324C872.5,-324 817.5,-324 817.5,-324 811.5,-324 805.5,-318 805.5,-312 805.5,-312 805.5,-300 805.5,-300 805.5,-294 811.5,-288 817.5,-288 817.5,-288 872.5,-288 872.5,-288 878.5,-288 884.5,-294 884.5,-300 884.5,-300 884.5,-312 884.5,-312 884.5,-318 878.5,-324 872.5,-324"/>
<text text-anchor="middle" x="845" y="-303.5" font-family="sans" font-size="10.00">forecast_trade</text>
</g>
<!-- 25&#45;&gt;24 -->
<g id="edge43" class="edge">
<title>25&#45;&gt;24</title>
<path fill="none" stroke="grey" stroke-width="2" d="M805.45,-292.24C772.91,-281.74 726.23,-266.69 688.92,-254.65"/>
<polygon fill="grey" stroke="grey" stroke-width="2" points="689.75,-251.24 679.16,-251.5 687.6,-257.9 689.75,-251.24"/>
</g>
<!-- 28 -->
<g id="node29" class="node">
<title>28</title>
<path fill="none" stroke="#56a9d8" stroke-width="2" stroke-dasharray="5,2" d="M780.5,-252C780.5,-252 709.5,-252 709.5,-252 703.5,-252 697.5,-246 697.5,-240 697.5,-240 697.5,-228 697.5,-228 697.5,-222 703.5,-216 709.5,-216 709.5,-216 780.5,-216 780.5,-216 786.5,-216 792.5,-222 792.5,-228 792.5,-228 792.5,-240 792.5,-240 792.5,-246 786.5,-252 780.5,-252"/>
<text text-anchor="middle" x="745" y="-237" font-family="sans" font-size="10.00">play_simulation</text>
<text text-anchor="middle" x="745" y="-226" font-family="sans" font-size="10.00">model_type: ridge</text>
</g>
<!-- 25&#45;&gt;28 -->
<g id="edge48" class="edge">
<title>25&#45;&gt;28</title>
<path fill="none" stroke="grey" stroke-width="2" d="M820.54,-287.88C807.7,-278.89 791.8,-267.76 777.91,-258.03"/>
<polygon fill="grey" stroke="grey" stroke-width="2" points="779.76,-255.06 769.56,-252.19 775.74,-260.79 779.76,-255.06"/>
</g>
<!-- 29 -->
<g id="node30" class="node">
<title>29</title>
<path fill="none" stroke="#56a9d8" stroke-width="2" stroke-dasharray="5,2" d="M903,-252C903,-252 823,-252 823,-252 817,-252 811,-246 811,-240 811,-240 811,-228 811,-228 811,-222 817,-216 823,-216 823,-216 903,-216 903,-216 909,-216 915,-222 915,-228 915,-228 915,-240 915,-240 915,-246 909,-252 903,-252"/>
<text text-anchor="middle" x="863" y="-237" font-family="sans" font-size="10.00">play_simulation</text>
<text text-anchor="middle" x="863" y="-226" font-family="sans" font-size="10.00">model_type: dummy</text>
</g>
<!-- 25&#45;&gt;29 -->
<g id="edge49" class="edge">
<title>25&#45;&gt;29</title>
<path fill="none" stroke="grey" stroke-width="2" d="M849.45,-287.7C851.45,-279.9 853.87,-270.51 856.1,-261.83"/>
<polygon fill="grey" stroke="grey" stroke-width="2" points="859.5,-262.66 858.6,-252.1 852.72,-260.92 859.5,-262.66"/>
</g>
<!-- 26&#45;&gt;25 -->
<g id="edge44" class="edge">
<title>26&#45;&gt;25</title>
<path fill="none" stroke="grey" stroke-width="2" d="M899.42,-434.45C887.37,-424.54 873.5,-411.05 865,-396 854.26,-376.98 849.28,-352.62 846.98,-334.2"/>
<polygon fill="grey" stroke="grey" stroke-width="2" points="850.45,-333.69 845.91,-324.12 843.49,-334.43 850.45,-333.69"/>
</g>
<!-- 27 -->
<g id="node28" class="node">
<title>27</title>
<path fill="none" stroke="#566bd8" stroke-width="2" stroke-dasharray="5,2" d="M960.5,-396C960.5,-396 885.5,-396 885.5,-396 879.5,-396 873.5,-390 873.5,-384 873.5,-384 873.5,-372 873.5,-372 873.5,-366 879.5,-360 885.5,-360 885.5,-360 960.5,-360 960.5,-360 966.5,-360 972.5,-366 972.5,-372 972.5,-372 972.5,-384 972.5,-384 972.5,-390 966.5,-396 960.5,-396"/>
<text text-anchor="middle" x="923" y="-375.5" font-family="sans" font-size="10.00">best_window_sizes</text>
</g>
<!-- 26&#45;&gt;27 -->
<g id="edge47" class="edge">
<title>26&#45;&gt;27</title>
<path fill="none" stroke="grey" stroke-width="2" d="M923,-434.32C923,-425.92 923,-415.62 923,-406.19"/>
<polygon fill="grey" stroke="grey" stroke-width="2" points="926.5,-406.06 923,-396.06 919.5,-406.06 926.5,-406.06"/>
</g>
<!-- 27&#45;&gt;25 -->
<g id="edge45" class="edge">
<title>27&#45;&gt;25</title>
<path fill="none" stroke="grey" stroke-width="2" d="M903.72,-359.7C894.08,-351.05 882.27,-340.45 871.77,-331.03"/>
<polygon fill="grey" stroke="grey" stroke-width="2" points="873.84,-328.18 864.06,-324.1 869.16,-333.39 873.84,-328.18"/>
</g>
<!-- 28&#45;&gt;23 -->
<g id="edge41" class="edge">
<title>28&#45;&gt;23</title>
<path fill="none" stroke="grey" stroke-width="2" d="M717.6,-215.88C703.09,-206.81 685.08,-195.55 669.41,-185.76"/>
<polygon fill="grey" stroke="grey" stroke-width="2" points="670.84,-182.52 660.5,-180.19 667.13,-188.46 670.84,-182.52"/>
</g>
<!-- 29&#45;&gt;23 -->
<g id="edge42" class="edge">
<title>29&#45;&gt;23</title>
<path fill="none" stroke="grey" stroke-width="2" d="M810.81,-217.12C774.8,-206.16 726.93,-191.59 689.93,-180.33"/>
<polygon fill="grey" stroke="grey" stroke-width="2" points="690.88,-176.96 680.29,-177.39 688.84,-183.65 690.88,-176.96"/>
</g>
<!-- 30 -->
<g id="node31" class="node">
<title>30</title>
<path fill="none" stroke="#56b9d8" stroke-width="2" stroke-dasharray="5,2" d="M780.5,-108C780.5,-108 709.5,-108 709.5,-108 703.5,-108 697.5,-102 697.5,-96 697.5,-96 697.5,-84 697.5,-84 697.5,-78 703.5,-72 709.5,-72 709.5,-72 780.5,-72 780.5,-72 786.5,-72 792.5,-78 792.5,-84 792.5,-84 792.5,-96 792.5,-96 792.5,-102 786.5,-108 780.5,-108"/>
<text text-anchor="middle" x="745" y="-93" font-family="sans" font-size="10.00">generate_table</text>
<text text-anchor="middle" x="745" y="-82" font-family="sans" font-size="10.00">table: result_table</text>
</g>
<!-- 30&#45;&gt;0 -->
<g id="edge6" class="edge">
<title>30&#45;&gt;0</title>
<path fill="none" stroke="grey" stroke-width="2" d="M697.43,-74.07C658.8,-61.94 604.7,-44.96 566.83,-33.07"/>
<polygon fill="grey" stroke="grey" stroke-width="2" points="567.67,-29.67 557.09,-30.01 565.58,-36.35 567.67,-29.67"/>
</g>
<!-- 31 -->
<g id="node32" class="node">
<title>31</title>
<path fill="none" stroke="#ced856" stroke-width="2" stroke-dasharray="5,2" d="M783.5,-180C783.5,-180 710.5,-180 710.5,-180 704.5,-180 698.5,-174 698.5,-168 698.5,-168 698.5,-156 698.5,-156 698.5,-150 704.5,-144 710.5,-144 710.5,-144 783.5,-144 783.5,-144 789.5,-144 795.5,-150 795.5,-156 795.5,-156 795.5,-168 795.5,-168 795.5,-174 789.5,-180 783.5,-180"/>
<text text-anchor="middle" x="747" y="-159.5" font-family="sans" font-size="10.00">aggregate_metrics</text>
</g>
<!-- 31&#45;&gt;30 -->
<g id="edge50" class="edge">
<title>31&#45;&gt;30</title>
<path fill="none" stroke="grey" stroke-width="2" d="M746.51,-143.7C746.29,-135.98 746.02,-126.71 745.77,-118.11"/>
<polygon fill="grey" stroke="grey" stroke-width="2" points="749.27,-118 745.49,-108.1 742.28,-118.2 749.27,-118"/>
</g>
<!-- 32 -->
<g id="node33" class="node">
<title>32</title>
<path fill="none" stroke="#56d86b" stroke-width="2" stroke-dasharray="5,2" d="M1095,-252C1095,-252 1065,-252 1065,-252 1059,-252 1053,-246 1053,-240 1053,-240 1053,-228 1053,-228 1053,-222 1059,-216 1065,-216 1065,-216 1095,-216 1095,-216 1101,-216 1107,-222 1107,-228 1107,-228 1107,-240 1107,-240 1107,-246 1101,-252 1095,-252"/>
<text text-anchor="middle" x="1080" y="-231.5" font-family="sans" font-size="10.00">metrics</text>
</g>
<!-- 32&#45;&gt;31 -->
<g id="edge51" class="edge">
<title>32&#45;&gt;31</title>
<path fill="none" stroke="grey" stroke-width="2" d="M1052.88,-228.65C1004.99,-220.78 902.15,-203.04 805.57,-180.01"/>
<polygon fill="grey" stroke="grey" stroke-width="2" points="806.19,-176.56 795.64,-177.62 804.55,-183.37 806.19,-176.56"/>
</g>
<!-- 33 -->
<g id="node34" class="node">
<title>33</title>
<path fill="none" stroke="#d8bc56" stroke-width="2" stroke-dasharray="5,2" d="M1230,-324C1230,-324 1154,-324 1154,-324 1148,-324 1142,-318 1142,-312 1142,-312 1142,-300 1142,-300 1142,-294 1148,-288 1154,-288 1154,-288 1230,-288 1230,-288 1236,-288 1242,-294 1242,-300 1242,-300 1242,-312 1242,-312 1242,-318 1236,-324 1230,-324"/>
<text text-anchor="middle" x="1192" y="-303.5" font-family="sans" font-size="10.00">aggregate_forecast</text>
</g>
<!-- 33&#45;&gt;32 -->
<g id="edge52" class="edge">
<title>33&#45;&gt;32</title>
<path fill="none" stroke="grey" stroke-width="2" d="M1164.6,-287.88C1149.85,-278.66 1131.47,-267.17 1115.62,-257.26"/>
<polygon fill="grey" stroke="grey" stroke-width="2" points="1117.45,-254.28 1107.12,-251.95 1113.74,-260.22 1117.45,-254.28"/>
</g>
<!-- 34&#45;&gt;33 -->
<g id="edge53" class="edge">
<title>34&#45;&gt;33</title>
<path fill="none" stroke="grey" stroke-width="2" d="M1041.83,-431.71C1073.62,-405.31 1129.84,-358.62 1163.74,-330.47"/>
<polygon fill="grey" stroke="grey" stroke-width="2" points="1165.98,-333.16 1171.44,-324.08 1161.51,-327.77 1165.98,-333.16"/>
</g>
<!-- 34&#45;&gt;39 -->
<g id="edge65" class="edge">
<title>34&#45;&gt;39</title>
<path fill="none" stroke="grey" stroke-width="2" d="M1059.62,-435.19C1062.78,-434.07 1065.93,-433 1069,-432 1116.2,-416.67 1170.75,-402.24 1210.47,-392.32"/>
<polygon fill="grey" stroke="grey" stroke-width="2" points="1211.37,-395.71 1220.23,-389.9 1209.68,-388.91 1211.37,-395.71"/>
</g>
<!-- 35&#45;&gt;33 -->
<g id="edge54" class="edge">
<title>35&#45;&gt;33</title>
<path fill="none" stroke="grey" stroke-width="2" d="M1129,-431.71C1141.91,-406.16 1164.42,-361.6 1178.74,-333.24"/>
<polygon fill="grey" stroke="grey" stroke-width="2" points="1181.88,-334.8 1183.26,-324.3 1175.63,-331.64 1181.88,-334.8"/>
</g>
<!-- 35&#45;&gt;39 -->
<g id="edge66" class="edge">
<title>35&#45;&gt;39</title>
<path fill="none" stroke="grey" stroke-width="2" d="M1158.78,-431.88C1178.31,-422.25 1201.88,-410.62 1221.95,-400.72"/>
<polygon fill="grey" stroke="grey" stroke-width="2" points="1223.77,-403.73 1231.19,-396.17 1220.68,-397.45 1223.77,-403.73"/>
</g>
<!-- 36&#45;&gt;33 -->
<g id="edge55" class="edge">
<title>36&#45;&gt;33</title>
<path fill="none" stroke="grey" stroke-width="2" d="M1217.03,-431.71C1211.97,-406.49 1203.19,-362.76 1197.49,-334.36"/>
<polygon fill="grey" stroke="grey" stroke-width="2" points="1200.87,-333.41 1195.47,-324.3 1194.01,-334.79 1200.87,-333.41"/>
</g>
<!-- 36&#45;&gt;39 -->
<g id="edge67" class="edge">
<title>36&#45;&gt;39</title>
<path fill="none" stroke="grey" stroke-width="2" d="M1233.3,-431.69C1238.4,-423.47 1244.38,-413.83 1249.83,-405.05"/>
<polygon fill="grey" stroke="grey" stroke-width="2" points="1252.95,-406.66 1255.25,-396.32 1247,-402.97 1252.95,-406.66"/>
</g>
<!-- 37&#45;&gt;33 -->
<g id="edge56" class="edge">
<title>37&#45;&gt;33</title>
<path fill="none" stroke="grey" stroke-width="2" d="M1357.77,-431.86C1352.43,-411.44 1341.38,-379.75 1321,-360 1301.97,-341.56 1275.64,-329.2 1251.73,-321.1"/>
<polygon fill="grey" stroke="grey" stroke-width="2" points="1252.6,-317.7 1242.01,-317.98 1250.46,-324.37 1252.6,-317.7"/>
</g>
<!-- 37&#45;&gt;39 -->
<g id="edge68" class="edge">
<title>37&#45;&gt;39</title>
<path fill="none" stroke="grey" stroke-width="2" d="M1336.02,-431.88C1323.9,-422.73 1309.4,-411.77 1296.74,-402.21"/>
<polygon fill="grey" stroke="grey" stroke-width="2" points="1298.82,-399.4 1288.73,-396.17 1294.6,-404.99 1298.82,-399.4"/>
</g>
<!-- 38&#45;&gt;33 -->
<g id="edge57" class="edge">
<title>38&#45;&gt;33</title>
<path fill="none" stroke="grey" stroke-width="2" d="M1442.73,-431.96C1420.71,-411.62 1383.72,-380 1347,-360 1317.27,-343.81 1281.67,-331.21 1252.09,-322.37"/>
<polygon fill="grey" stroke="grey" stroke-width="2" points="1252.89,-318.96 1242.31,-319.52 1250.93,-325.68 1252.89,-318.96"/>
</g>
<!-- 38&#45;&gt;39 -->
<g id="edge69" class="edge">
<title>38&#45;&gt;39</title>
<path fill="none" stroke="grey" stroke-width="2" d="M1421.29,-435.14C1418.49,-434.07 1415.7,-433.01 1413,-432 1382.78,-420.66 1348.9,-408.42 1321.29,-398.55"/>
<polygon fill="grey" stroke="grey" stroke-width="2" points="1322.39,-395.23 1311.8,-395.17 1320.04,-401.83 1322.39,-395.23"/>
</g>
<!-- 39&#45;&gt;33 -->
<g id="edge58" class="edge">
<title>39&#45;&gt;33</title>
<path fill="none" stroke="grey" stroke-width="2" d="M1247.71,-359.7C1238.57,-351.05 1227.36,-340.45 1217.4,-331.03"/>
<polygon fill="grey" stroke="grey" stroke-width="2" points="1219.75,-328.43 1210.08,-324.1 1214.94,-333.52 1219.75,-328.43"/>
</g>
<!-- 40 -->
<g id="node41" class="node">
<title>40</title>
<path fill="none" stroke="#56b9d8" stroke-width="2" d="M885.5,-108C885.5,-108 828.5,-108 828.5,-108 822.5,-108 816.5,-102 816.5,-96 816.5,-96 816.5,-84 816.5,-84 816.5,-78 822.5,-72 828.5,-72 828.5,-72 885.5,-72 885.5,-72 891.5,-72 897.5,-78 897.5,-84 897.5,-84 897.5,-96 897.5,-96 897.5,-102 891.5,-108 885.5,-108"/>
<text text-anchor="middle" x="857" y="-93" font-family="sans" font-size="10.00">generate_table</text>
<text text-anchor="middle" x="857" y="-82" font-family="sans" font-size="10.00">table: tickers</text>
</g>
<!-- 40&#45;&gt;0 -->
<g id="edge7" class="edge">
<title>40&#45;&gt;0</title>
<path fill="none" stroke="grey" stroke-width="2" d="M816.3,-75.86C811.5,-74.48 806.66,-73.16 802,-72 719.96,-51.62 622.7,-34.84 567.08,-25.93"/>
<polygon fill="grey" stroke="grey" stroke-width="2" points="567.62,-22.47 557.2,-24.35 566.52,-29.38 567.62,-22.47"/>
</g>
<!-- 41 -->
<g id="node42" class="node">
<title>41</title>
<path fill="none" stroke="#59d856" stroke-width="2" d="M894,-180C894,-180 826,-180 826,-180 820,-180 814,-174 814,-168 814,-168 814,-156 814,-156 814,-150 820,-144 826,-144 826,-144 894,-144 894,-144 900,-144 906,-150 906,-156 906,-156 906,-168 906,-168 906,-174 900,-180 894,-180"/>
<text text-anchor="middle" x="860" y="-159.5" font-family="sans" font-size="10.00">ticker_description</text>
</g>
<!-- 41&#45;&gt;40 -->
<g id="edge70" class="edge">
<title>41&#45;&gt;40</title>
<path fill="none" stroke="grey" stroke-width="2" d="M859.26,-143.7C858.93,-135.98 858.53,-126.71 858.16,-118.11"/>
<polygon fill="grey" stroke="grey" stroke-width="2" points="861.66,-117.95 857.73,-108.1 854.66,-118.25 861.66,-117.95"/>
</g>
</g>
</svg>
